{
  "accessors": [
    {
      "bufferView": 2,
      "componentType": 5126,
      "count": 258,
      "max": [
        7.20807409286499,
        9.539827346801758,
        32.23645782470703
      ],
      "min": [
        -7.20807409286499,
        -9.242901802062988,
        0.0
      ],
      "type": "VEC3"
    },
    {
      "bufferView": 2,
      "byteOffset": 3096,
      "componentType": 5126,
      "count": 258,
      "max": [
        0.988277792930603,
        0.9991077184677124,
        1.0
      ],
      "min": [
        -0.988277792930603,
        -0.9994527101516724,
        -0.9999629259109497
      ],
      "type": "VEC3"
    },
    {
      "bufferView": 1,
      "componentType": 5126,
      "count": 258,
      "max": [
        0.4011397957801819,
        0.40993383526802063
      ],
      "min": [
        0.004658999852836132,
        0.004660048056393862
      ],
      "type": "VEC2"
    },
    {
      "bufferView": 0,
      "componentType": 5125,
      "count": 1098,
      "type": "SCALAR"
    },
    {
      "bufferView": 2,
      "byteOffset": 6192,
      "componentType": 5126,
      "count": 24,
      "max": [
        1.7614209651947021,
        -0.5639445781707764,
        35.069183349609375
      ],
      "min": [
        -1.761421799659729,
        -4.086787700653076,
        32.2364501953125
      ],
      "type": "VEC3"
    },
    {
      "bufferView": 2,
      "byteOffset": 6480,
      "componentType": 5126,
      "count": 24,
      "max": [
        1.0,
        1.0,
        1.0
      ],
      "min": [
        -1.0,
        -1.0,
        -2.0272510425911605e-07
      ],
      "type": "VEC3"
    },
    {
      "bufferView": 1,
      "byteOffset": 2064,
      "componentType": 5126,
      "count": 24,
      "max": [
        0.9877959489822388,
        0.2148870974779129
      ],
      "min": [
        0.7744186520576477,
        0.17788681387901306
      ],
      "type": "VEC2"
    },
    {
      "bufferView": 0,
      "byteOffset": 4392,
      "componentType": 5125,
      "count": 66,
      "type": "SCALAR"
    },
    {
      "bufferView": 2,
      "byteOffset": 6768,
      "componentType": 5126,
      "count": 97,
      "max": [
        4.867390155792236,
        4.867391586303711,
        18.26241683959961
      ],
      "min": [
        -4.867390155792236,
        -4.867387771606445,
        5.421010862427522e-14
      ],
      "type": "VEC3"
    },
    {
      "bufferView": 2,
      "byteOffset": 7932,
      "componentType": 5126,
      "count": 97,
      "max": [
        1.0,
        1.0,
        1.0
      ],
      "min": [
        -1.0,
        -1.0,
        -0.9206929802894592
      ],
      "type": "VEC3"
    },
    {
      "bufferView": 1,
      "byteOffset": 2256,
      "componentType": 5126,
      "count": 97,
      "max": [
        0.8606865406036377,
        0.6026005148887634
      ],
      "min": [
        0.7204656004905701,
        0.3915891945362091
      ],
      "type": "VEC2"
    },
    {
      "bufferView": 0,
      "byteOffset": 4656,
      "componentType": 5125,
      "count": 372,
      "type": "SCALAR"
    },
    {
      "bufferView": 2,
      "byteOffset": 9096,
      "componentType": 5126,
      "count": 24,
      "max": [
        1.8484584093093872,
        1.8484605550765991,
        20.131620407104492
      ],
      "min": [
        -1.8484588861465454,
        -1.848456621170044,
        18.257795333862305
      ],
      "type": "VEC3"
    },
    {
      "bufferView": 2,
      "byteOffset": 9384,
      "componentType": 5126,
      "count": 24,
      "max": [
        0.9974033236503601,
        0.9974032640457153,
        1.0
      ],
      "min": [
        -0.9974033236503601,
        -0.9974033236503601,
        0.07201934605836868
      ],
      "type": "VEC3"
    },
    {
      "bufferView": 1,
      "byteOffset": 3032,
      "componentType": 5126,
      "count": 24,
      "max": [
        0.9211316108703613,
        0.3364470303058624
      ],
      "min": [
        0.7745386958122253,
        0.06479112803936005
      ],
      "type": "VEC2"
    },
    {
      "bufferView": 0,
      "byteOffset": 6144,
      "componentType": 5125,
      "count": 66,
      "type": "SCALAR"
    },
    {
      "bufferView": 2,
      "byteOffset": 9672,
      "componentType": 5126,
      "count": 97,
      "max": [
        4.867390155792236,
        4.867391586303711,
        24.92908477783203
      ],
      "min": [
        -4.867390155792236,
        -4.8673882484436035,
        5.421010862427522e-14
      ],
      "type": "VEC3"
    },
    {
      "bufferView": 2,
      "byteOffset": 10836,
      "componentType": 5126,
      "count": 97,
      "max": [
        1.0,
        1.0,
        1.0
      ],
      "min": [
        -1.0,
        -1.0,
        -0.9206929802894592
      ],
      "type": "VEC3"
    },
    {
      "bufferView": 1,
      "byteOffset": 3224,
      "componentType": 5126,
      "count": 97,
      "max": [
        0.8606865406036377,
        0.6026005148887634
      ],
      "min": [
        0.7204656004905701,
        0.3915891945362091
      ],
      "type": "VEC2"
    },
    {
      "bufferView": 0,
      "byteOffset": 6408,
      "componentType": 5125,
      "count": 372,
      "type": "SCALAR"
    },
    {
      "bufferView": 2,
      "byteOffset": 12000,
      "componentType": 5126,
      "count": 24,
      "max": [
        1.8484584093093872,
        1.84846031665802,
        26.798288345336914
      ],
      "min": [
        -1.8484588861465454,
        -1.848456859588623,
        24.924463272094727
      ],
      "type": "VEC3"
    },
    {
      "bufferView": 2,
      "byteOffset": 12288,
      "componentType": 5126,
      "count": 24,
      "max": [
        0.9974032640457153,
        0.9974033236503601,
        1.0
      ],
      "min": [
        -0.9974033236503601,
        -0.9974033236503601,
        0.07201933860778809
      ],
      "type": "VEC3"
    },
    {
      "bufferView": 1,
      "byteOffset": 4000,
      "componentType": 5126,
      "count": 24,
      "max": [
        0.9211316108703613,
        0.3364470303058624
      ],
      "min": [
        0.7745386958122253,
        0.06479112803936005
      ],
      "type": "VEC2"
    },
    {
      "bufferView": 0,
      "byteOffset": 7896,
      "componentType": 5125,
      "count": 66,
      "type": "SCALAR"
    },
    {
      "bufferView": 2,
      "byteOffset": 12576,
      "componentType": 5126,
      "count": 118,
      "max": [
        3.041822910308838,
        6.670001983642578,
        24.693899154663086
      ],
      "min": [
        -3.0417351722717285,
        -6.669994354248047,
        -6.854830189695349e-06
      ],
      "type": "VEC3"
    },
    {
      "bufferView": 2,
      "byteOffset": 13992,
      "componentType": 5126,
      "count": 118,
      "max": [
        0.991484522819519,
        0.9739632606506348,
        0.956725001335144
      ],
      "min": [
        -0.991484522819519,
        -0.979515016078949,
        -0.9756374955177307
      ],
      "type": "VEC3"
    },
    {
      "bufferView": 1,
      "byteOffset": 4192,
      "componentType": 5126,
      "count": 118,
      "max": [
        0.5680543184280396,
        0.8350396752357483
      ],
      "min": [
        0.17395088076591492,
        0.6746262311935425
      ],
      "type": "VEC2"
    },
    {
      "bufferView": 0,
      "byteOffset": 8160,
      "componentType": 5125,
      "count": 504,
      "type": "SCALAR"
    },
    {
      "bufferView": 2,
      "byteOffset": 15408,
      "componentType": 5126,
      "count": 24,
      "max": [
        1.6688717603683472,
        5.29323148727417,
        28.33115005493164
      ],
      "min": [
        -1.6688717603683472,
        1.956922173500061,
        24.570444107055664
      ],
      "type": "VEC3"
    },
    {
      "bufferView": 2,
      "byteOffset": 15696,
      "componentType": 5126,
      "count": 24,
      "max": [
        0.9999913573265076,
        0.9999876618385315,
        1.0
      ],
      "min": [
        -0.9999876618385315,
        -0.999987781047821,
        -7.923704833956435e-05
      ],
      "type": "VEC3"
    },
    {
      "bufferView": 1,
      "byteOffset": 5136,
      "componentType": 5126,
      "count": 24,
      "max": [
        0.9904290437698364,
        0.31781524419784546
      ],
      "min": [
        0.9407398104667664,
        0.02072809636592865
      ],
      "type": "VEC2"
    },
    {
      "bufferView": 0,
      "byteOffset": 10176,
      "componentType": 5125,
      "count": 66,
      "type": "SCALAR"
    },
    {
      "bufferView": 2,
      "byteOffset": 15984,
      "componentType": 5126,
      "count": 137,
      "max": [
        7.605494976043701,
        6.729034423828125,
        27.59345054626465
      ],
      "min": [
        -7.605495452880859,
        -6.72900390625,
        -0.00020711460092570633
      ],
      "type": "VEC3"
    },
    {
      "bufferView": 2,
      "byteOffset": 17628,
      "componentType": 5126,
      "count": 137,
      "max": [
        0.9805628061294556,
        0.9846866726875305,
        0.9898118376731873
      ],
      "min": [
        -0.9805628061294556,
        -0.9765599966049194,
        -0.9579528570175171
      ],
      "type": "VEC3"
    },
    {
      "bufferView": 1,
      "byteOffset": 5328,
      "componentType": 5126,
      "count": 137,
      "max": [
        0.724449098110199,
        0.39088964462280273
      ],
      "min": [
        0.18212094902992249,
        0.006072239018976688
      ],
      "type": "VEC2"
    },
    {
      "bufferView": 0,
      "byteOffset": 10440,
      "componentType": 5125,
      "count": 588,
      "type": "SCALAR"
    },
    {
      "bufferView": 2,
      "byteOffset": 19272,
      "componentType": 5126,
      "count": 26,
      "max": [
        2.4236230850219727,
        -0.5468368530273438,
        24.21954345703125
      ],
      "min": [
        -2.4236230850219727,
        -5.394081115722656,
        22.96828842163086
      ],
      "type": "VEC3"
    },
    {
      "bufferView": 2,
      "byteOffset": 19584,
      "componentType": 5126,
      "count": 26,
      "max": [
        1.0,
        1.0,
        1.0
      ],
      "min": [
        -1.0,
        -1.0,
        0.0
      ],
      "type": "VEC3"
    },
    {
      "bufferView": 1,
      "byteOffset": 6424,
      "componentType": 5126,
      "count": 26,
      "max": [
        0.9560086727142334,
        0.18767599761486053
      ],
      "min": [
        0.7640828490257263,
        0.03787834569811821
      ],
      "type": "VEC2"
    },
    {
      "bufferView": 0,
      "byteOffset": 12792,
      "componentType": 5125,
      "count": 66,
      "type": "SCALAR"
    },
    {
      "bufferView": 2,
      "byteOffset": 19896,
      "componentType": 5126,
      "count": 4,
      "max": [
        4.285015106201172,
        -6.745670795440674,
        20.22895050048828
      ],
      "min": [
        -4.285015106201172,
        -6.745670795440674,
        1.9067201614379883
      ],
      "type": "VEC3"
    },
    {
      "bufferView": 2,
      "byteOffset": 19944,
      "componentType": 5126,
      "count": 4,
      "max": [
        0.0,
        -1.0,
        0.0
      ],
      "min": [
        0.0,
        -1.0,
        0.0
      ],
      "type": "VEC3"
    },
    {
      "bufferView": 1,
      "byteOffset": 6632,
      "componentType": 5126,
      "count": 4,
      "max": [
        0.559109628200531,
        0.28068751096725464
      ],
      "min": [
        0.4138452112674713,
        0.21265774965286255
      ],
      "type": "VEC2"
    },
    {
      "bufferView": 0,
      "byteOffset": 13056,
      "componentType": 5125,
      "count": 6,
      "type": "SCALAR"
    },
    {
      "bufferView": 2,
      "byteOffset": 19992,
      "componentType": 5126,
      "count": 4,
      "max": [
        -3.0584018230438232,
        4.4414520263671875,
        19.76502799987793
      ],
      "min": [
        -3.0584018230438232,
        -4.414545059204102,
        1.8916406631469727
      ],
      "type": "VEC3"
    },
    {
      "bufferView": 2,
      "byteOffset": 20040,
      "componentType": 5126,
      "count": 4,
      "max": [
        -1.0,
        2.413533906064913e-08,
        0.0
      ],
      "min": [
        -1.0,
        2.413533906064913e-08,
        0.0
      ],
      "type": "VEC3"
    },
    {
      "bufferView": 1,
      "byteOffset": 6664,
      "componentType": 5126,
      "count": 4,
      "max": [
        0.3923332095146179,
        0.8284839987754822
      ],
      "min": [
        0.31983062624931335,
        0.6815073490142822
      ],
      "type": "VEC2"
    },
    {
      "bufferView": 0,
      "byteOffset": 13080,
      "componentType": 5125,
      "count": 6,
      "type": "SCALAR"
    },
    {
      "bufferView": 2,
      "byteOffset": 20088,
      "componentType": 5126,
      "count": 12,
      "max": [
        4.723174571990967,
        0.02548956871032715,
        18.683696746826172
      ],
      "min": [
        -4.723174571990967,
        -4.697691440582275,
        3.730276107788086
      ],
      "type": "VEC3"
    },
    {
      "bufferView": 2,
      "byteOffset": 20232,
      "componentType": 5126,
      "count": 12,
      "max": [
        0.9238796830177307,
        -0.38268259167671204,
        4.4105767926794215e-09
      ],
      "min": [
        -0.9238799214363098,
        -1.0,
        0.0
      ],
      "type": "VEC3"
    },
    {
      "bufferView": 1,
      "byteOffset": 6696,
      "componentType": 5126,
      "count": 12,
      "max": [
        0.8389506340026855,
        0.6018269658088684
      ],
      "min": [
        0.7691428661346436,
        0.39247143268585205
      ],
      "type": "VEC2"
    },
    {
      "bufferView": 0,
      "byteOffset": 13104,
      "componentType": 5125,
      "count": 24,
      "type": "SCALAR"
    },
    {
      "bufferView": 2,
      "byteOffset": 20376,
      "componentType": 5126,
      "count": 18,
      "max": [
        4.723174571990967,
        4.723176956176758,
        12.320272445678711
      ],
      "min": [
        -4.723174571990967,
        -4.723173141479492,
        3.4270315170288086
      ],
      "type": "VEC3"
    },
    {
      "bufferView": 2,
      "byteOffset": 20592,
      "componentType": 5126,
      "count": 18,
      "max": [
        1.0,
        1.0,
        4.013567700411613e-09
      ],
      "min": [
        -1.0,
        -1.0,
        0.0
      ],
      "type": "VEC3"
    },
    {
      "bufferView": 1,
      "byteOffset": 6792,
      "componentType": 5126,
      "count": 18,
      "max": [
        0.8389506340026855,
        0.6018269658088684
      ],
      "min": [
        0.7691428661346436,
        0.39247143268585205
      ],
      "type": "VEC2"
    },
    {
      "bufferView": 0,
      "byteOffset": 13200,
      "componentType": 5125,
      "count": 48,
      "type": "SCALAR"
    },
    {
      "bufferView": 2,
      "byteOffset": 20808,
      "componentType": 5126,
      "count": 16,
      "max": [
        7.244144916534424,
        5.984626770019531,
        21.038516998291016
      ],
      "min": [
        -7.244144916534424,
        -5.9846272468566895,
        2.6214981079101563
      ],
      "type": "VEC3"
    },
    {
      "bufferView": 2,
      "byteOffset": 21000,
      "componentType": 5126,
      "count": 16,
      "max": [
        0.9975011944770813,
        0.14156018197536469,
        1.5555976062842092e-08
      ],
      "min": [
        -0.9975011944770813,
        -0.14156003296375275,
        -4.465235292627767e-09
      ],
      "type": "VEC3"
    },
    {
      "bufferView": 1,
      "byteOffset": 6936,
      "componentType": 5126,
      "count": 16,
      "max": [
        0.15047115087509155,
        0.3755604028701782
      ],
      "min": [
        0.004660045728087425,
        0.08877167105674744
      ],
      "type": "VEC2"
    },
    {
      "bufferView": 0,
      "byteOffset": 13392,
      "componentType": 5125,
      "count": 36,
      "type": "SCALAR"
    }
  ],
  "asset": {
    "extras": {
      "author": "FRH4D (https://sketchfab.com/FRH4D)",
      "license": "CC-BY-4.0 (http://creativecommons.org/licenses/by/4.0/)",
      "source": "https://sketchfab.com/3d-models/plastic-bottles-49a637bb38bc40d5ad36b6dc6a0024a4",
      "title": "Plastic Bottles"
    },
    "generator": "Sketchfab-14.48.0",
    "version": "2.0"
  },
  "bufferViews": [
    {
      "buffer": 0,
      "byteLength": 13536,
      "name": "floatBufferViews",
      "target": 34963
    },
    {
      "buffer": 0,
      "byteLength": 7064,
      "byteOffset": 13536,
      "byteStride": 8,
      "name": "floatBufferViews",
      "target": 34962
    },
    {
      "buffer": 0,
      "byteLength": 21192,
      "byteOffset": 20600,
      "byteStride": 12,
      "name": "floatBufferViews",
      "target": 34962
    }
  ],
  "buffers": [
    {
      "byteLength": 41792,
      "uri": "scene.bin"
    }
  ],
  "materials": [
    {
      "doubleSided": true,
      "name": "plastic",
      "pbrMetallicRoughness": {
        "baseColorFactor": [
          0.35651,
          0.367239,
          0.367239,
          1.0
        ],
        "metallicFactor": 0.0,
        "roughnessFactor": 0.25
      }
    },
    {
      "doubleSided": true,
      "name": "material",
      "pbrMetallicRoughness": {
        "baseColorFactor": [
          0.7241664348743744,
          0.16162267950167578,
          0.043322932945691395,
          1.0
        ]
      }
    },
    {
      "doubleSided": true,
      "name": "sticker",
      "pbrMetallicRoughness": {
        "baseColorFactor": [
          0.3221109999999999,
          0.3931149999999999,
          0.08524079999999998,
          1.0
        ],
        "metallicFactor": 0.0
      }
    }
  ],
  "meshes": [
    {
      "name": "BottlePlastic1_plastic_0",
      "primitives": [
        {
          "attributes": {
            "NORMAL": 1,
            "POSITION": 0,
            "TEXCOORD_0": 2
          },
          "indices": 3,
          "material": 0,
          "mode": 4
        }
      ]
    },
    {
      "name": "BottlePlastic1.1_cap_0",
      "primitives": [
        {
          "attributes": {
            "NORMAL": 5,
            "POSITION": 4,
            "TEXCOORD_0": 6
          },
          "indices": 7,
          "material": 1,
          "mode": 4
        }
      ]
    },
    {
      "name": "BottlePlastic2_plastic_0",
      "primitives": [
        {
          "attributes": {
            "NORMAL": 9,
            "POSITION": 8,
            "TEXCOORD_0": 10
          },
          "indices": 11,
          "material": 0,
          "mode": 4
        }
      ]
    },
    {
      "name": "BottlePlastic2.1_cap_0",
      "primitives": [
        {
          "attributes": {
            "NORMAL": 13,
            "POSITION": 12,
            "TEXCOORD_0": 14
          },
          "indices": 15,
          "material": 1,
          "mode": 4
        }
      ]
    },
    {
      "name": "BottlePlastic3_plastic_0",
      "primitives": [
        {
          "attributes": {
            "NORMAL": 17,
            "POSITION": 16,
            "TEXCOORD_0": 18
          },
          "indices": 19,
          "material": 0,
          "mode": 4
        }
      ]
    },
    {
      "name": "BottlePlastic3.1_cap_0",
      "primitives": [
        {
          "attributes": {
            "NORMAL": 21,
            "POSITION": 20,
            "TEXCOORD_0": 22
          },
          "indices": 23,
          "material": 1,
          "mode": 4
        }
      ]
    },
    {
      "name": "BottlePlastic4_plastic_0",
      "primitives": [
        {
          "attributes": {
            "NORMAL": 25,
            "POSITION": 24,
            "TEXCOORD_0": 26
          },
          "indices": 27,
          "material": 0,
          "mode": 4
        }
      ]
    },
    {
      "name": "BottlePlastic4.1_cap_0",
      "primitives": [
        {
          "attributes": {
            "NORMAL": 29,
            "POSITION": 28,
            "TEXCOORD_0": 30
          },
          "indices": 31,
          "material": 1,
          "mode": 4
        }
      ]
    },
    {
      "name": "BottlePlastic5_plastic_0",
      "primitives": [
        {
          "attributes": {
            "NORMAL": 33,
            "POSITION": 32,
            "TEXCOORD_0": 34
          },
          "indices": 35,
          "material": 0,
          "mode": 4
        }
      ]
    },
    {
      "name": "BottlePlastic5.1_cap_0",
      "primitives": [
        {
          "attributes": {
            "NORMAL": 37,
            "POSITION": 36,
            "TEXCOORD_0": 38
          },
          "indices": 39,
          "material": 1,
          "mode": 4
        }
      ]
    },
    {
      "name": "BottlePlastic5.002_sticker_0",
      "primitives": [
        {
          "attributes": {
            "NORMAL": 41,
            "POSITION": 40,
            "TEXCOORD_0": 42
          },
          "indices": 43,
          "material": 2,
          "mode": 4
        }
      ]
    },
    {
      "name": "BottlePlastic4.002_sticker_0",
      "primitives": [
        {
          "attributes": {
            "NORMAL": 45,
            "POSITION": 44,
            "TEXCOORD_0": 46
          },
          "indices": 47,
          "material": 2,
          "mode": 4
        }
      ]
    },
    {
      "name": "BottlePlastic3.002_sticker_0",
      "primitives": [
        {
          "attributes": {
            "NORMAL": 49,
            "POSITION": 48,
            "TEXCOORD_0": 50
          },
          "indices": 51,
          "material": 2,
          "mode": 4
        }
      ]
    },
    {
      "name": "BottlePlastic2.002_sticker_0",
      "primitives": [
        {
          "attributes": {
            "NORMAL": 53,
            "POSITION": 52,
            "TEXCOORD_0": 54
          },
          "indices": 55,
          "material": 2,
          "mode": 4
        }
      ]
    },
    {
      "name": "BottlePlastic1.002_sticker_0",
      "primitives": [
        {
          "attributes": {
            "NORMAL": 57,
            "POSITION": 56,
            "TEXCOORD_0": 58
          },
          "indices": 59,
          "material": 2,
          "mode": 4
        }
      ]
    }
  ],
  "nodes": [
    {
      "children": [
        1
      ],
      "matrix": [
        1.0,
        0.0,
        0.0,
        0.0,
        0.0,
        2.220446049250313e-16,
        -1.0,
        0.0,
        0.0,
        1.0,
        2.220446049250313e-16,
        0.0,
        0.0,
        0.0,
        0.0,
        1.0
      ],
      "name": "Sketchfab_model"
    },
    {
      "children": [
        2
      ],
      "matrix": [
        0.009999999776482582,
        0.0,
        0.0,
        0.0,
        0.0,
        0.0,
        0.009999999776482582,
        0.0,
        0.0,
        -0.009999999776482582,
        0.0,
        0.0,
        0.0,
        0.0,
        0.0,
        1.0
      ],
      "name": "fc64c64c433d47fa9e425b222fbc6464.fbx"
    },
    {
      "children": [
        3,
        5,
        7,
        9,
        11,
        13,
        15,
        17,
        19,
        21,
        23,
        25,
        27,
        29,
        31
      ],
      "name": "RootNode"
    },
    {
      "children": [
        4
      ],
      "matrix": [
        6.0,
        0.0,
        0.0,
        0.0,
        -0.0,
        -9.775240763509885e-07,
        -5.999999999999921,
        0.0,
        0.0,
        5.999999999999921,
        -9.775240763509885e-07,
        0.0,
        -200.0,
        0.0,
        0.0,
        1.0
      ],
      "name": "BottlePlastic1"
    },
    {
      "mesh": 0,
      "name": "BottlePlastic1_plastic_0"
    },
    {
      "children": [
        6
      ],
      "matrix": [
        6.0,
        0.0,
        0.0,
        0.0,
        -0.0,
        -9.775240763509885e-07,
        -5.999999999999921,
        0.0,
        0.0,
        5.999999999999921,
        -9.775240763509885e-07,
        0.0,
        -200.0,
        0.0,
        0.0,
        1.0
      ],
      "name": "BottlePlastic1.1"
    },
    {
      "mesh": 1,
      "name": "BottlePlastic1.1_cap_0"
    },
    {
      "children": [
        8
      ],
      "matrix": [
        6.0,
        0.0,
        0.0,
        0.0,
        -0.0,
        -9.775240763509885e-07,
        -5.999999999999921,
        0.0,
        0.0,
        5.999999999999921,
        -9.775240763509885e-07,
        0.0,
        -100.0,
        0.0,
        0.0,
        1.0
      ],
      "name": "BottlePlastic2"
    },
    {
      "mesh": 2,
      "name": "BottlePlastic2_plastic_0"
    },
    {
      "children": [
        10
      ],
      "matrix": [
        6.0,
        0.0,
        0.0,
        0.0,
        -0.0,
        -9.775240763509885e-07,
        -5.999999999999921,
        0.0,
        0.0,
        5.999999999999921,
        -9.775240763509885e-07,
        0.0,
        -100.0,
        0.0,
        0.0,
        1.0
      ],
      "name": "BottlePlastic2.1"
    },
    {
      "mesh": 3,
      "name": "BottlePlastic2.1_cap_0"
    },
    {
      "children": [
        12
      ],
      "matrix": [
        6.0,
        0.0,
        0.0,
        0.0,
        0.0,
        -9.775240763509885e-07,
        -5.999999999999921,
        0.0,
        0.0,
        5.999999999999921,
        -9.775240763509885e-07,
        0.0,
        0.0,
        0.0,
        0.0,
        1.0
      ],
      "name": "BottlePlastic3"
    },
    {
      "mesh": 4,
      "name": "BottlePlastic3_plastic_0"
    },
    {
      "children": [
        14
      ],
      "matrix": [
        6.0,
        0.0,
        0.0,
        0.0,
        0.0,
        -9.775240763509885e-07,
        -5.999999999999921,
        0.0,
        0.0,
        5.999999999999921,
        -9.775240763509885e-07,
        0.0,
        0.0,
        0.0,
        0.0,
        1.0
      ],
      "name": "BottlePlastic3.1"
    },
    {
      "mesh": 5,
      "name": "BottlePlastic3.1_cap_0"
    },
    {
      "children": [
        16
      ],
      "matrix": [
        6.0,
        0.0,
        0.0,
        0.0,
        0.0,
        -9.775240763509885e-07,
        -5.999999999999921,
        0.0,
        0.0,
        5.999999999999921,
        -9.775240763509885e-07,
        0.0,
        100.0,
        -1.0658141036401503e-12,
        0.0,
        1.0
      ],
      "name": "BottlePlastic4"
    },
    {
      "mesh": 6,
      "name": "BottlePlastic4_plastic_0"
    },
    {
      "children": [
        18
      ],
      "matrix": [
        6.0,
        0.0,
        0.0,
        0.0,
        0.0,
        -9.775240763509885e-07,
        -5.999999999999921,
        0.0,
        0.0,
        5.999999999999921,
        -9.775240763509885e-07,
        0.0,
        100.0,
        -1.0658141036401503e-12,
        0.0,
        1.0
      ],
      "name": "BottlePlastic4.1"
    },
    {
      "mesh": 7,
      "name": "BottlePlastic4.1_cap_0"
    },
    {
      "children": [
        20
      ],
      "matrix": [
        6.0,
        0.0,
        0.0,
        0.0,
        0.0,
        -9.775240763509885e-07,
        -5.999999999999921,
        0.0,
        0.0,
        5.999999999999921,
        -9.775240763509885e-07,
        0.0,
        200.0,
        2.1316282072803006e-12,
        0.00019073486328125,
        1.0
      ],
      "name": "BottlePlastic5"
    },
    {
      "mesh": 8,
      "name": "BottlePlastic5_plastic_0"
    },
    {
      "children": [
        22
      ],
      "matrix": [
        6.0,
        0.0,
        0.0,
        0.0,
        0.0,
        -9.775240763509885e-07,
        -5.999999999999921,
        0.0,
        0.0,
        5.999999999999921,
        -9.775240763509885e-07,
        0.0,
        200.0,
        2.1316282072803006e-12,
        0.00019073486328125,
        1.0
      ],
      "name": "BottlePlastic5.1"
    },
    {
      "mesh": 9,
      "name": "BottlePlastic5.1_cap_0"
    },
    {
      "children": [
        24
      ],
      "matrix": [
        6.0,
        0.0,
        0.0,
        0.0,
        0.0,
        -9.775240763509885e-07,
        -5.999999999999921,
        0.0,
        0.0,
        5.999999999999921,
        -9.775240763509885e-07,
        0.0,
        200.0,
        2.1316282072803006e-12,
        0.00019073486328125,
        1.0
      ],
      "name": "BottlePlastic5.002"
    },
    {
      "mesh": 10,
      "name": "BottlePlastic5.002_sticker_0"
    },
    {
      "children": [
        26
      ],
      "matrix": [
        6.0,
        0.0,
        0.0,
        0.0,
        0.0,
        -9.775240763509885e-07,
        -5.999999999999921,
        0.0,
        0.0,
        5.999999999999921,
        -9.775240763509885e-07,
        0.0,
        100.0,
        -1.0658141036401503e-12,
        0.0,
        1.0
      ],
      "name": "BottlePlastic4.002"
    },
    {
      "mesh": 11,
      "name": "BottlePlastic4.002_sticker_0"
    },
    {
      "children": [
        28
      ],
      "matrix": [
        6.0,
        0.0,
        0.0,
        0.0,
        0.0,
        -9.775240763509885e-07,
        -5.999999999999921,
        0.0,
        0.0,
        5.999999999999921,
        -9.775240763509885e-07,
        0.0,
        0.0,
        0.0,
        0.0,
        1.0
      ],
      "name": "BottlePlastic3.002"
    },
    {
      "mesh": 12,
      "name": "BottlePlastic3.002_sticker_0"
    },
    {
      "children": [
        30
      ],
      "matrix": [
        6.0,
        0.0,
        0.0,
        0.0,
        -0.0,
        -9.775240763509885e-07,
        -5.999999999999921,
        0.0,
        0.0,
        5.999999999999921,
        -9.775240763509885e-07,
        0.0,
        -100.0,
        0.0,
        0.0,
        1.0
      ],
      "name": "BottlePlastic2.002"
    },
    {
      "mesh": 13,
      "name": "BottlePlastic2.002_sticker_0"
    },
    {
      "children": [
        32
      ],
      "matrix": [
        6.0,
        0.0,
        0.0,
        0.0,
        -0.0,
        -9.775240763509885e-07,
        -5.999999999999921,
        0.0,
        0.0,
        5.999999999999921,
        -9.775240763509885e-07,
        0.0,
        -200.0,
        0.0,
        0.0,
        1.0
      ],
      "name": "BottlePlastic1.002"
    },
    {
      "mesh": 14,
      "name": "BottlePlastic1.002_sticker_0"
    }
  ],
  "scene": 0,
  "scenes": [
    {
      "name": "Sketchfab_Scene",
      "nodes": [
        0
      ]
    }
  ]
}
