{
  "accessors": [
    {
      "bufferView": 2,
      "componentType": 5126,
      "count": 84,
      "max": [
        0.5095717906951904,
        4.156645774841309,
        0.921154260635376
      ],
      "min": [
        -0.5095717906951904,
        -0.46719062328338623,
        -0.23049728572368622
      ],
      "type": "VEC3"
    },
    {
      "bufferView": 2,
      "byteOffset": 1008,
      "componentType": 5126,
      "count": 84,
      "max": [
        0.999920666217804,
        0.9942981600761414,
        0.9812415242195129
      ],
      "min": [
        -0.999920666217804,
        -0.8448022603988647,
        -0.9831288456916809
      ],
      "type": "VEC3"
    },
    {
      "bufferView": 1,
      "componentType": 5126,
      "count": 84,
      "max": [
        1.0,
        0.9999999403953552
      ],
      "min": [
        0.0,
        0.0
      ],
      "type": "VEC2"
    },
    {
      "bufferView": 0,
      "componentType": 5125,
      "count": 156,
      "type": "SCALAR"
    },
    {
      "bufferView": 2,
      "byteOffset": 2016,
      "componentType": 5126,
      "count": 192,
      "max": [
        0.5095717906951904,
        4.156645774841309,
        0.921154260635376
      ],
      "min": [
        -0.5095717906951904,
        -0.46719062328338623,
        -0.23049728572368622
      ],
      "type": "VEC3"
    },
    {
      "bufferView": 2,
      "byteOffset": 4320,
      "componentType": 5126,
      "count": 192,
      "max": [
        0.999920666217804,
        0.9942981600761414,
        0.9812416434288025
      ],
      "min": [
        -0.999920666217804,
        -0.9942981600761414,
        -0.9831288456916809
      ],
      "type": "VEC3"
    },
    {
      "bufferView": 1,
      "byteOffset": 672,
      "componentType": 5126,
      "count": 192,
      "max": [
        0.9955031275749207,
        1.0
      ],
      "min": [
        0.0,
        0.0
      ],
      "type": "VEC2"
    },
    {
      "bufferView": 0,
      "byteOffset": 624,
      "componentType": 5125,
      "count": 432,
      "type": "SCALAR"
    },
    {
      "bufferView": 2,
      "byteOffset": 6624,
      "componentType": 5126,
      "count": 192,
      "max": [
        0.5095717906951904,
        4.156645774841309,
        0.921154260635376
      ],
      "min": [
        -0.5095717906951904,
        -0.46719062328338623,
        -0.23049728572368622
      ],
      "type": "VEC3"
    },
    {
      "bufferView": 2,
      "byteOffset": 8928,
      "componentType": 5126,
      "count": 192,
      "max": [
        0.999920666217804,
        0.9942981600761414,
        0.9812415242195129
      ],
      "min": [
        -0.999920666217804,
        -0.9942981600761414,
        -0.9831288456916809
      ],
      "type": "VEC3"
    },
    {
      "bufferView": 1,
      "byteOffset": 2208,
      "componentType": 5126,
      "count": 192,
      "max": [
        1.0,
        0.9999999403953552
      ],
      "min": [
        0.0,
        0.0
      ],
      "type": "VEC2"
    },
    {
      "bufferView": 0,
      "byteOffset": 2352,
      "componentType": 5125,
      "count": 432,
      "type": "SCALAR"
    }
  ],
  "asset": {
    "extras": {
      "author": "Glitch5970 (https://sketchfab.com/Glitch5970)",
      "license": "CC-BY-4.0 (http://creativecommons.org/licenses/by/4.0/)",
      "source": "https://sketchfab.com/3d-models/fnaf-ceiling-stars-deco-00c45ef9904e4a5c8c73bf2937f22cf1",
      "title": "FNaF - Ceiling Stars Deco"
    },
    "generator": "Sketchfab-12.64.0",
    "version": "2.0"
  },
  "bufferViews": [
    {
      "buffer": 0,
      "byteLength": 4080,
      "name": "floatBufferViews",
      "target": 34963
    },
    {
      "buffer": 0,
      "byteLength": 3744,
      "byteOffset": 4080,
      "byteStride": 8,
      "name": "floatBufferViews",
      "target": 34962
    },
    {
      "buffer": 0,
      "byteLength": 11232,
      "byteOffset": 7824,
      "byteStride": 12,
      "name": "floatBufferViews",
      "target": 34962
    }
  ],
  "buffers": [
    {
      "byteLength": 19056,
      "uri": "scene.bin"
    }
  ],
  "images": [
    {
      "uri": "textures/White_metallicRoughness.png"
    }
  ],
  "materials": [
    {
      "doubleSided": true,
      "name": "White",
      "pbrMetallicRoughness": {
        "baseColorFactor": [
          0.8,
          0.8,
          0.8,
          1.0
        ],
        "metallicFactor": 0.232304788275688,
        "metallicRoughnessTexture": {
          "index": 0
        }
      }
    }
  ],
  "meshes": [
    {
      "name": "Object_0",
      "primitives": [
        {
          "attributes": {
            "NORMAL": 1,
            "POSITION": 0,
            "TEXCOORD_0": 2
          },
          "indices": 3,
          "material": 0,
          "mode": 4
        }
      ]
    },
    {
      "name": "Object_1",
      "primitives": [
        {
          "attributes": {
            "NORMAL": 5,
            "POSITION": 4,
            "TEXCOORD_0": 6
          },
          "indices": 7,
          "material": 0,
          "mode": 4
        }
      ]
    },
    {
      "name": "Object_2",
      "primitives": [
        {
          "attributes": {
            "NORMAL": 9,
            "POSITION": 8,
            "TEXCOORD_0": 10
          },
          "indices": 11,
          "material": 0,
          "mode": 4
        }
      ]
    }
  ],
  "nodes": [
    {
      "children": [
        1
      ],
      "matrix": [
        1.0,
        0.0,
        0.0,
        0.0,
        0.0,
        2.220446049250313e-16,
        -1.0,
        0.0,
        0.0,
        1.0,
        2.220446049250313e-16,
        0.0,
        0.0,
        0.0,
        0.0,
        1.0
      ],
      "name": "Sketchfab_model"
    },
    {
      "children": [
        2
      ],
      "name": "root"
    },
    {
      "children": [
        3,
        5,
        7
      ],
      "matrix": [
        1.0,
        0.0,
        0.0,
        0.0,
        0.0,
        2.220446049250313e-16,
        1.0,
        0.0,
        0.0,
        -1.0,
        2.220446049250313e-16,
        0.0,
        0.0,
        0.0,
        0.0,
        1.0
      ],
      "name": "GLTF_SceneRootNode"
    },
    {
      "children": [
        4
      ],
      "matrix": [
        1.3239519596099854,
        0.0,
        -0.0,
        0.0,
        -0.0,
        1.3231145076605357,
        -0.06917105691969888,
        0.0,
        0.0,
        0.018405980347344617,
        0.35207239428997267,
        0.0,
        0.0,
        0.0,
        0.0,
        1.0
      ],
      "name": "NoHole_0"
    },
    {
      "mesh": 0,
      "name": "Object_4"
    },
    {
      "children": [
        6
      ],
      "matrix": [
        1.3239519596099854,
        0.0,
        -0.0,
        0.0,
        0.0,
        1.3231145076605357,
        -0.06917105691969888,
        0.0,
        0.0,
        0.018405980347344617,
        0.35207239428997267,
        0.0,
        2.0,
        0.0,
        0.0,
        1.0
      ],
      "name": "BigHole_1"
    },
    {
      "mesh": 1,
      "name": "Object_6"
    },
    {
      "children": [
        8
      ],
      "matrix": [
        1.3239519596099854,
        0.0,
        -0.0,
        0.0,
        -0.0,
        1.3231145076605357,
        -0.06917105691969888,
        0.0,
        0.0,
        0.018405980347344617,
        0.35207239428997267,
        0.0,
        -2.0,
        0.0,
        0.0,
        1.0
      ],
      "name": "SmallHole_2"
    },
    {
      "mesh": 2,
      "name": "Object_8"
    }
  ],
  "samplers": [
    {
      "magFilter": 9729,
      "minFilter": 9987,
      "wrapS": 10497,
      "wrapT": 10497
    }
  ],
  "scene": 0,
  "scenes": [
    {
      "name": "Sketchfab_Scene",
      "nodes": [
        0
      ]
    }
  ],
  "textures": [
    {
      "sampler": 0,
      "source": 0
    }
  ]
}
