{
  "accessors": [
    {
      "bufferView": 2,
      "componentType": 5126,
      "count": 21344,
      "max": [
        57.70808029174805,
        0.2746868133544922,
        41.04396438598633
      ],
      "min": [
        -61.18168640136719,
        -24.49216079711914,
        -40.39293670654297
      ],
      "type": "VEC3"
    },
    {
      "bufferView": 2,
      "byteOffset": 256128,
      "componentType": 5126,
      "count": 21344,
      "max": [
        1.0,
        1.0,
        1.0
      ],
      "min": [
        -1.0,
        -1.0,
        -1.0
      ],
      "type": "VEC3"
    },
    {
      "bufferView": 3,
      "componentType": 5126,
      "count": 21344,
      "max": [
        1.0,
        0.9953787326812744,
        0.9807854890823364,
        1.0
      ],
      "min": [
        -1.4065057030165917e-06,
        -0.9953786134719849,
        -0.9998564720153809,
        -1.0
      ],
      "type": "VEC4"
    },
    {
      "bufferView": 1,
      "componentType": 5126,
      "count": 21344,
      "max": [
        1.0,
        1.0
      ],
      "min": [
        0.0,
        0.0
      ],
      "type": "VEC2"
    },
    {
      "bufferView": 0,
      "componentType": 5125,
      "count": 83628,
      "type": "SCALAR"
    },
    {
      "bufferView": 2,
      "byteOffset": 512256,
      "componentType": 5126,
      "count": 96,
      "max": [
        17.6669979095459,
        -2.5958385467529297,
        180.3263397216797
      ],
      "min": [
        -24.62942123413086,
        -14.085811614990234,
        25.086149215698242
      ],
      "type": "VEC3"
    },
    {
      "bufferView": 2,
      "byteOffset": 513408,
      "componentType": 5126,
      "count": 96,
      "max": [
        0.7071068286895752,
        0.7071068286895752,
        1.0
      ],
      "min": [
        -0.7071068286895752,
        -0.7071068286895752,
        -1.0
      ],
      "type": "VEC3"
    },
    {
      "bufferView": 3,
      "byteOffset": 341504,
      "componentType": 5126,
      "count": 96,
      "max": [
        1.0,
        1.0,
        6.4061482589750085e-06,
        1.0
      ],
      "min": [
        -1.0,
        -1.0,
        -1.3755541772297875e-07,
        1.0
      ],
      "type": "VEC4"
    },
    {
      "bufferView": 1,
      "byteOffset": 170752,
      "componentType": 5126,
      "count": 96,
      "max": [
        1.0,
        1.0
      ],
      "min": [
        0.0,
        0.0
      ],
      "type": "VEC2"
    },
    {
      "bufferView": 0,
      "byteOffset": 334512,
      "componentType": 5125,
      "count": 144,
      "type": "SCALAR"
    }
  ],
  "asset": {
    "extras": {
      "author": "Glitch5970 (https://sketchfab.com/Glitch5970)",
      "license": "CC-BY-4.0 (http://creativecommons.org/licenses/by/4.0/)",
      "source": "https://sketchfab.com/3d-models/fnaf-1-stage-clouds-deco-b9eabd2e26a04d70a691a2f4f1965911",
      "title": "FNaF 1 - Stage Clouds Deco"
    },
    "generator": "Sketchfab-12.64.0",
    "version": "2.0"
  },
  "bufferViews": [
    {
      "buffer": 0,
      "byteLength": 335088,
      "name": "floatBufferViews",
      "target": 34963
    },
    {
      "buffer": 0,
      "byteLength": 171520,
      "byteOffset": 335088,
      "byteStride": 8,
      "name": "floatBufferViews",
      "target": 34962
    },
    {
      "buffer": 0,
      "byteLength": 514560,
      "byteOffset": 506608,
      "byteStride": 12,
      "name": "floatBufferViews",
      "target": 34962
    },
    {
      "buffer": 0,
      "byteLength": 343040,
      "byteOffset": 1021168,
      "byteStride": 16,
      "name": "floatBufferViews",
      "target": 34962
    }
  ],
  "buffers": [
    {
      "byteLength": 1364208,
      "uri": "scene.bin"
    }
  ],
  "images": [
    {
      "uri": "textures/clouds_baseColor.png"
    },
    {
      "uri": "textures/clouds_metallicRoughness.png"
    },
    {
      "uri": "textures/clouds_normal.png"
    },
    {
      "uri": "textures/attachment_baseColor.png"
    },
    {
      "uri": "textures/attachment_metallicRoughness.png"
    },
    {
      "uri": "textures/attachment_normal.png"
    }
  ],
  "materials": [
    {
      "doubleSided": true,
      "name": "clouds",
      "normalTexture": {
        "index": 2,
        "scale": 0.7421310831737834
      },
      "pbrMetallicRoughness": {
        "baseColorTexture": {
          "index": 0
        },
        "metallicFactor": 0.8392408536305636,
        "metallicRoughnessTexture": {
          "index": 1
        }
      }
    },
    {
      "doubleSided": true,
      "name": "attachment",
      "normalTexture": {
        "index": 5
      },
      "pbrMetallicRoughness": {
        "baseColorTexture": {
          "index": 3
        },
        "metallicRoughnessTexture": {
          "index": 4
        }
      }
    }
  ],
  "meshes": [
    {
      "name": "Cylinder_clouds_0",
      "primitives": [
        {
          "attributes": {
            "NORMAL": 1,
            "POSITION": 0,
            "TANGENT": 2,
            "TEXCOORD_0": 3
          },
          "indices": 4,
          "material": 0,
          "mode": 4
        }
      ]
    },
    {
      "name": "Cylinder_attachment_0",
      "primitives": [
        {
          "attributes": {
            "NORMAL": 6,
            "POSITION": 5,
            "TANGENT": 7,
            "TEXCOORD_0": 8
          },
          "indices": 9,
          "material": 1,
          "mode": 4
        }
      ]
    }
  ],
  "nodes": [
    {
      "children": [
        1
      ],
      "matrix": [
        1.0,
        0.0,
        0.0,
        0.0,
        0.0,
        2.220446049250313e-16,
        -1.0,
        0.0,
        0.0,
        1.0,
        2.220446049250313e-16,
        0.0,
        0.0,
        0.0,
        0.0,
        1.0
      ],
      "name": "Sketchfab_model"
    },
    {
      "children": [
        2
      ],
      "matrix": [
        0.009999999776482582,
        0.0,
        0.0,
        0.0,
        0.0,
        0.0,
        0.009999999776482582,
        0.0,
        0.0,
        -0.009999999776482582,
        0.0,
        0.0,
        0.0,
        0.0,
        0.0,
        1.0
      ],
      "name": "6e456cc9314345ebb8b31f2b9ff83fee.fbx"
    },
    {
      "children": [
        3
      ],
      "name": "RootNode"
    },
    {
      "children": [
        4,
        5
      ],
      "matrix": [
        100.0,
        0.0,
        0.0,
        0.0,
        0.0,
        -1.629206793918314e-05,
        -99.99999999999868,
        0.0,
        0.0,
        99.99999999999868,
        -1.629206793918314e-05,
        0.0,
        0.0,
        0.0,
        0.0,
        1.0
      ],
      "name": "Cylinder"
    },
    {
      "mesh": 0,
      "name": "Cylinder_clouds_0"
    },
    {
      "mesh": 1,
      "name": "Cylinder_attachment_0"
    }
  ],
  "samplers": [
    {
      "magFilter": 9729,
      "minFilter": 9987,
      "wrapS": 10497,
      "wrapT": 10497
    }
  ],
  "scene": 0,
  "scenes": [
    {
      "name": "Sketchfab_Scene",
      "nodes": [
        0
      ]
    }
  ],
  "textures": [
    {
      "sampler": 0,
      "source": 0
    },
    {
      "sampler": 0,
      "source": 1
    },
    {
      "sampler": 0,
      "source": 2
    },
    {
      "sampler": 0,
      "source": 3
    },
    {
      "sampler": 0,
      "source": 4
    },
    {
      "sampler": 0,
      "source": 5
    }
  ]
}
