{
  "accessors": [
    {
      "bufferView": 2,
      "componentType": 5126,
      "count": 161,
      "max": [
        1.7727891206741333,
        44.31951141357422,
        44.31951141357422
      ],
      "min": [
        -86.86624145507813,
        -44.31951141357422,
        -44.31951141357422
      ],
      "type": "VEC3"
    },
    {
      "bufferView": 2,
      "byteOffset": 1932,
      "componentType": 5126,
      "count": 161,
      "max": [
        0.7242604494094849,
        0.8944271802902222,
        0.8944273591041565
      ],
      "min": [
        -1.0,
        -0.8944271802902222,
        -0.8944271206855774
      ],
      "type": "VEC3"
    },
    {
      "bufferView": 3,
      "componentType": 5126,
      "count": 161,
      "max": [
        0.8944272398948669,
        0.020737282931804657,
        1.0,
        1.0
      ],
      "min": [
        -0.8944271206855774,
        -0.02073740027844906,
        0.4472135007381439,
        -1.0
      ],
      "type": "VEC4"
    },
    {
      "bufferView": 1,
      "componentType": 5126,
      "count": 161,
      "max": [
        1.0,
        1.0
      ],
      "min": [
        0.0,
        0.0
      ],
      "type": "VEC2"
    },
    {
      "bufferView": 0,
      "componentType": 5125,
      "count": 480,
      "type": "SCALAR"
    },
    {
      "bufferView": 2,
      "byteOffset": 3864,
      "componentType": 5126,
      "count": 96,
      "max": [
        -5.8149213790893555,
        38.759647369384766,
        38.7596435546875
      ],
      "min": [
        -77.38589477539063,
        -38.759639739990234,
        -38.7596435546875
      ],
      "type": "VEC3"
    },
    {
      "bufferView": 2,
      "byteOffset": 5016,
      "componentType": 5126,
      "count": 96,
      "max": [
        1.0,
        0.8923014402389526,
        0.8923013806343079
      ],
      "min": [
        0.45143982768058777,
        -0.8923014998435974,
        -0.892301619052887
      ],
      "type": "VEC3"
    },
    {
      "bufferView": 3,
      "byteOffset": 2576,
      "componentType": 5126,
      "count": 96,
      "max": [
        0.892301619052887,
        0.02609454095363617,
        1.0,
        1.0
      ],
      "min": [
        -0.8923013210296631,
        -0.026096483692526817,
        0.4514399468898773,
        1.0
      ],
      "type": "VEC4"
    },
    {
      "bufferView": 1,
      "byteOffset": 1288,
      "componentType": 5126,
      "count": 96,
      "max": [
        1.0,
        1.0
      ],
      "min": [
        0.0,
        0.0
      ],
      "type": "VEC2"
    },
    {
      "bufferView": 0,
      "byteOffset": 1920,
      "componentType": 5125,
      "count": 282,
      "type": "SCALAR"
    },
    {
      "bufferView": 2,
      "byteOffset": 6168,
      "componentType": 5126,
      "count": 4225,
      "max": [
        0.9922208786010742,
        0.36149585247039795,
        54.65991973876953
      ],
      "min": [
        -0.9921287894248962,
        -91.71761322021484,
        -54.659934997558594
      ],
      "type": "VEC3"
    },
    {
      "bufferView": 2,
      "byteOffset": 56868,
      "componentType": 5126,
      "count": 4225,
      "max": [
        1.0,
        0.9984809756278992,
        0.9999871850013733
      ],
      "min": [
        -1.0,
        -0.9986693859100342,
        -1.0
      ],
      "type": "VEC3"
    },
    {
      "bufferView": 1,
      "byteOffset": 2056,
      "componentType": 5126,
      "count": 4225,
      "max": [
        0.83238285779953,
        1.0039256811141968
      ],
      "min": [
        0.014406026341021061,
        0.01221285667270422
      ],
      "type": "VEC2"
    },
    {
      "bufferView": 0,
      "byteOffset": 3048,
      "componentType": 5125,
      "count": 12132,
      "type": "SCALAR"
    }
  ],
  "asset": {
    "extras": {
      "author": "Glitch5970 (https://sketchfab.com/Glitch5970)",
      "license": "CC-BY-4.0 (http://creativecommons.org/licenses/by/4.0/)",
      "source": "https://sketchfab.com/3d-models/new-party-hat-fnaf-efb55f7cb6d34d8bb04270099c27ce7d",
      "title": "New Party Hat | FNaF"
    },
    "generator": "Sketchfab-12.65.0",
    "version": "2.0"
  },
  "bufferViews": [
    {
      "buffer": 0,
      "byteLength": 51576,
      "name": "floatBufferViews",
      "target": 34963
    },
    {
      "buffer": 0,
      "byteLength": 35856,
      "byteOffset": 51576,
      "byteStride": 8,
      "name": "floatBufferViews",
      "target": 34962
    },
    {
      "buffer": 0,
      "byteLength": 107568,
      "byteOffset": 87432,
      "byteStride": 12,
      "name": "floatBufferViews",
      "target": 34962
    },
    {
      "buffer": 0,
      "byteLength": 4112,
      "byteOffset": 195000,
      "byteStride": 16,
      "name": "floatBufferViews",
      "target": 34962
    }
  ],
  "buffers": [
    {
      "byteLength": 199112,
      "uri": "scene.bin"
    }
  ],
  "images": [
    {
      "uri": "textures/Base_baseColor.png"
    },
    {
      "uri": "textures/Base_metallicRoughness.png"
    },
    {
      "uri": "textures/Base_normal.png"
    },
    {
      "uri": "textures/Base2_baseColor.png"
    },
    {
      "uri": "textures/Base2_metallicRoughness.png"
    },
    {
      "uri": "textures/Base2_normal.png"
    }
  ],
  "materials": [
    {
      "doubleSided": true,
      "name": "Base",
      "normalTexture": {
        "index": 2
      },
      "pbrMetallicRoughness": {
        "baseColorTexture": {
          "index": 0
        },
        "metallicRoughnessTexture": {
          "index": 1
        }
      }
    },
    {
      "doubleSided": true,
      "name": "Base2",
      "normalTexture": {
        "index": 5
      },
      "pbrMetallicRoughness": {
        "baseColorTexture": {
          "index": 3
        },
        "metallicRoughnessTexture": {
          "index": 4
        }
      }
    },
    {
      "doubleSided": true,
      "name": "White",
      "pbrMetallicRoughness": {
        "baseColorFactor": [
          0.8,
          0.8,
          0.8,
          1.0
        ],
        "metallicFactor": 0.09270949324406663
      }
    }
  ],
  "meshes": [
    {
      "name": "Cylinder_Base_0",
      "primitives": [
        {
          "attributes": {
            "NORMAL": 1,
            "POSITION": 0,
            "TANGENT": 2,
            "TEXCOORD_0": 3
          },
          "indices": 4,
          "material": 0,
          "mode": 4
        }
      ]
    },
    {
      "name": "Cylinder_Base2_0",
      "primitives": [
        {
          "attributes": {
            "NORMAL": 6,
            "POSITION": 5,
            "TANGENT": 7,
            "TEXCOORD_0": 8
          },
          "indices": 9,
          "material": 1,
          "mode": 4
        }
      ]
    },
    {
      "name": "Cylinder_White_0",
      "primitives": [
        {
          "attributes": {
            "NORMAL": 11,
            "POSITION": 10,
            "TEXCOORD_0": 12
          },
          "indices": 13,
          "material": 2,
          "mode": 4
        }
      ]
    }
  ],
  "nodes": [
    {
      "children": [
        1
      ],
      "matrix": [
        1.0,
        0.0,
        0.0,
        0.0,
        0.0,
        2.220446049250313e-16,
        -1.0,
        0.0,
        0.0,
        1.0,
        2.220446049250313e-16,
        0.0,
        0.0,
        0.0,
        0.0,
        1.0
      ],
      "name": "Sketchfab_model"
    },
    {
      "children": [
        2
      ],
      "matrix": [
        1.0,
        0.0,
        0.0,
        0.0,
        0.0,
        0.0,
        1.0,
        0.0,
        0.0,
        -1.0,
        0.0,
        0.0,
        0.0,
        0.0,
        0.0,
        1.0
      ],
      "name": "566f888246344a61a244ab7193203f08.fbx"
    },
    {
      "children": [
        3
      ],
      "name": "RootNode"
    },
    {
      "children": [
        4,
        5,
        6
      ],
      "matrix": [
        1.7034911305960587e-07,
        -2.256342411041252,
        6.724422015297004e-08,
        0.0,
        -6.365818099671446e-07,
        -6.7244267999297e-08,
        -2.2563424110411687,
        0.0,
        2.2563424110411634,
        1.7034909389602465e-07,
        -6.365818148519791e-07,
        0.0,
        0.0,
        4.000000476837158,
        0.0,
        1.0
      ],
      "name": "Cylinder"
    },
    {
      "mesh": 0,
      "name": "Cylinder_Base_0"
    },
    {
      "mesh": 1,
      "name": "Cylinder_Base2_0"
    },
    {
      "mesh": 2,
      "name": "Cylinder_White_0"
    }
  ],
  "samplers": [
    {
      "magFilter": 9729,
      "minFilter": 9987,
      "wrapS": 10497,
      "wrapT": 10497
    }
  ],
  "scene": 0,
  "scenes": [
    {
      "name": "Sketchfab_Scene",
      "nodes": [
        0
      ]
    }
  ],
  "textures": [
    {
      "sampler": 0,
      "source": 0
    },
    {
      "sampler": 0,
      "source": 1
    },
    {
      "sampler": 0,
      "source": 2
    },
    {
      "sampler": 0,
      "source": 3
    },
    {
      "sampler": 0,
      "source": 4
    },
    {
      "sampler": 0,
      "source": 5
    }
  ]
}
